<svg xmlns="http://www.w3.org/2000/svg" viewBox="0 0 360 190" role="img" aria-labelledby="title desc">
  <title id="title">ONIRC</title>
  <desc id="desc">Hand-drawn comic speech bubble button.</desc>
  <defs>
    <filter id="rough">
      <feTurbulence type="fractalNoise" baseFrequency="0.035" numOctaves="2" seed="8" result="noise"/>
      <feDisplacementMap in="SourceGraphic" in2="noise" scale="3.5" xChannelSelector="R" yChannelSelector="G"/>
    </filter>
  </defs>
  <g fill="none" stroke="#111" stroke-linecap="round" stroke-linejoin="round" filter="url(#rough)">
    <path d="M42 36 C87 9, 248 14, 304 46 C345 70, 342 120, 299 143 C251 169, 118 171, 70 146 C29 125, 10 73, 42 36 Z" stroke-width="6"/>
    <path d="M99 147 C84 166, 62 175, 35 178 C55 165, 65 151, 67 137" stroke-width="5"/>
    <path d="M54 46 C103 23, 238 24, 292 51" stroke-width="2.4" opacity="0.34"/>
    <path d="M69 139 C119 160, 240 159, 293 137" stroke-width="2.1" opacity="0.28"/>
    <path d="M77 93 C82 58, 118 53, 126 85 C137 127, 82 133, 77 93 Z" stroke-width="5"/>
    <path d="M148 126 C149 94, 148 63, 151 58 C164 77, 180 102, 197 124 C198 97, 197 72, 199 54" stroke-width="5"/>
    <path d="M225 56 C223 77, 223 103, 226 126" stroke-width="5"/>
    <path d="M253 126 C250 96, 251 70, 256 57 C289 54, 301 74, 279 91 C294 100, 305 113, 314 126" stroke-width="5"/>
  </g>
</svg>
